PathFileType	4	(X/Y/Z)	PS_ngait_og_ss9.trc	
DataRate	CameraRate	NumFrames	NumMarkers	Units	OrigDataRate	OrigDataStartFrame	OrigNumFrames	
120.00	120.00	5	39	mm	120.00	505	130	
Frame#	Time	Sternum			Neck			RShoulder			LShoulder			Xiphoid			Thoracic			RAsis			LAsis			RPsis			LPsis			LThighSuperior			LThighInferior			LThighLateral			LShankSuperior			LShankInferior			LShankLateral			RThighSuperior			RThighInferior			RThighLateral			RShankSuperior			RShankInferior			RShankLateral			RHeel			RToe			RMidfootMedial			RMidfootLateral			RHindfoot			RMidfootSuperior			RToeMedial			RToeLateral			LHeel			LToe			LMidfootMedial			LMidfootLateral			LHindfoot			LMidfootSuperior			LToeMedial			LToeLateral			Sacral			
		X1	Y1	Z1	X2	Y2	Z2	X3	Y3	Z3	X4	Y4	Z4	X5	Y5	Z5	X6	Y6	Z6	X7	Y7	Z7	X8	Y8	Z8	X9	Y9	Z9	X10	Y10	Z10	X11	Y11	Z11	X12	Y12	Z12	X13	Y13	Z13	X14	Y14	Z14	X15	Y15	Z15	X16	Y16	Z16	X17	Y17	Z17	X18	Y18	Z18	X19	Y19	Z19	X20	Y20	Z20	X21	Y21	Z21	X22	Y22	Z22	X23	Y23	Z23	X24	Y24	Z24	X25	Y25	Z25	X26	Y26	Z26	X27	Y27	Z27	X28	Y28	Z28	X29	Y29	Z29	X30	Y30	Z30	X31	Y31	Z31	X32	Y32	Z32	X33	Y33	Z33	X34	Y34	Z34	X35	Y35	Z35	X36	Y36	Z36	X37	Y37	Z37	X38	Y38	Z38	X39	Y39	Z39	

1	0.000	52.88952	1417.35352	185.82298	-107.10670	1524.58887	187.85100	-64.79283	1508.70471	346.09631	-72.49871	1512.51953	46.35232	78.77036	1258.20435	192.06764	-197.18802	1309.44922	187.61205	-20.92321	1003.65381	328.44711	6.89601	989.32520	51.56724	-201.93173	1023.39679	230.70190	-196.33369	1016.53925	125.05596	-25.55887	825.79102	-7.71503	79.05934	619.10663	23.86061	115.32228	741.71075	68.62153	151.08220	394.45645	17.24575	185.64783	196.13010	49.13884	209.60010	301.64639	81.72552	-113.22699	814.01715	367.50092	-163.95067	579.52704	332.45099	-37.31173	710.70697	298.46509	-231.17377	431.24017	336.40686	-319.27200	190.27240	295.65112	-226.15439	292.90244	257.37241	-442.08566	88.71758	245.96758	-128.71510	38.93747	241.58037	-230.45595	33.18163	194.46500	-230.80275	26.98990	315.19913	-283.17047	33.02985	306.51822	-256.34851	96.90920	248.80505	-185.26164	31.27724	196.52692	-179.33310	28.89959	299.81152	146.81375	56.34563	109.58842	440.08066	130.79964	44.42671	360.53238	77.85345	111.42466	344.44980	72.96938	-1.37048	294.77884	59.08499	14.47182	316.35757	133.00575	67.50467	400.08685	92.06617	100.51695	384.37112	96.42138	-2.21322	-199.13271	1019.96802	177.87894 
2	0.008	62.05860	1417.05273	183.81683	-98.14128	1523.85034	185.23625	-56.36751	1508.60217	343.49460	-63.32505	1511.28870	43.75542	88.43015	1258.10767	190.80518	-187.55573	1308.55212	185.46741	-11.71144	1003.17078	327.95294	18.23546	988.63306	50.76078	-191.95959	1022.92908	228.81224	-185.48193	1015.78363	122.91179	-12.66517	824.95679	-7.29312	88.44825	617.03839	25.18678	125.54424	738.68378	69.62325	157.72775	391.41562	19.51949	190.66145	193.08220	51.41791	215.09689	298.33325	83.76709	-104.75838	814.11127	366.96960	-155.68990	579.52173	332.27573	-28.53493	710.36884	299.01538	-224.48723	431.80405	336.24350	-316.42780	192.44615	295.58423	-221.19646	293.71335	257.53970	-440.72473	92.85043	245.80029	-127.96909	37.81284	241.38866	-231.05597	33.31087	193.58685	-230.76547	26.91147	315.14957	-282.60077	33.65783	306.28998	-254.90053	97.30287	248.63780	-184.57355	30.91645	196.28456	-178.74315	28.27777	299.56845	149.23506	56.81169	110.00348	444.47858	123.06567	49.39513	364.07077	72.11698	114.93359	347.61728	68.67252	1.02927	297.90601	55.96593	16.72325	320.76117	128.44920	70.45516	403.25037	84.83824	104.93611	387.96799	90.78851	2.22056	-188.72076	1019.35632	175.86201 
3	0.017	71.43142	1416.94421	181.86929	-89.33118	1523.29932	182.49615	-48.24026	1508.74841	340.82928	-54.09222	1510.22485	41.07135	98.35943	1258.44873	189.55997	-177.76770	1307.64941	183.09364	-2.27491	1002.67401	327.22769	29.76472	988.27759	50.07711	-181.78789	1022.55457	226.77446	-174.51160	1015.11615	120.75813	-0.25149	824.28687	-7.03081	96.68893	614.82007	26.35936	135.62532	735.46588	70.49182	164.49792	388.74231	21.11909	196.39053	190.64081	52.59773	221.07814	295.27853	85.37609	-95.92657	814.10706	366.26605	-146.84200	579.52722	332.07050	-19.19007	709.96875	299.28589	-217.22662	432.50027	336.18524	-313.07553	194.77493	295.37875	-216.03659	294.48495	257.73447	-438.93027	97.55827	245.59818	-127.51054	37.17399	241.41225	-231.10616	33.93630	193.05219	-230.63380	26.95589	315.05487	-281.93756	34.63893	306.10254	-253.84680	97.92182	248.62729	-184.06583	31.07282	196.13225	-178.52917	27.87866	299.41660	151.88980	58.01685	109.75714	449.60287	113.88574	54.48672	368.32074	66.02924	118.50994	352.25153	62.81311	4.17522	302.13321	51.25713	19.55324	326.19617	123.29806	73.72124	406.81912	76.91938	109.70393	392.53531	83.28200	6.86945	-178.14975	1018.83539	173.76630 
4	0.025	80.61530	1417.24756	179.99843	-80.59085	1522.86914	179.61145	-40.27292	1509.05701	338.13464	-44.81421	1509.36462	38.33872	108.29066	1258.86621	188.33067	-167.90501	1307.00476	180.51859	7.38501	1002.22186	326.27527	41.36189	988.31738	49.60643	-171.40012	1022.53632	224.59973	-163.55095	1014.71368	118.62280	11.59557	823.62646	-6.95027	104.21602	612.81799	27.19012	145.19016	732.36438	71.23816	171.66954	386.56674	21.80293	202.45784	188.60022	53.06828	227.20264	293.02975	87.00677	-86.87933	814.37000	365.54816	-137.40628	579.59387	332.11108	-9.52145	709.91187	299.59198	-209.23444	433.28006	336.26263	-309.20004	197.43440	295.35294	-210.37352	295.10217	258.10117	-436.70349	102.67348	245.73036	-127.36004	36.57389	241.61176	-230.58205	34.43467	192.97708	-230.53897	27.01400	315.09360	-281.22604	35.89415	306.14172	-253.17615	98.41861	248.59334	-183.80421	31.13684	196.10904	-178.66751	27.52823	299.40042	154.71283	59.03215	109.15236	454.73730	104.22585	59.41903	369.65082	58.54775	122.06859	356.78918	56.61849	7.64470	306.60199	45.80124	23.03580	331.93188	117.88655	76.77312	409.50714	68.58044	113.54424	397.72021	75.74078	10.44604	-167.47554	1018.62500	171.61127 
5	0.033	90.06626	1417.88391	178.10030	-71.78413	1522.71228	176.53133	-32.33458	1509.56580	335.31531	-35.46950	1508.79468	35.56922	118.42212	1259.68738	187.16081	-157.92319	1306.46094	177.81564	17.63943	1002.06085	324.53928	52.84497	988.60693	48.93049	-160.60214	1022.58618	221.94107	-152.59856	1014.38367	116.64515	22.66162	823.18988	-7.13691	111.84050	611.09399	27.82150	154.06093	729.71600	72.26807	179.00491	384.83722	22.16343	208.95692	186.32166	53.35698	233.13039	290.62262	88.12073	-77.58489	814.68024	364.80756	-127.22539	579.54663	332.26108	0.49873	710.10822	299.88824	-200.39697	434.08490	336.45517	-304.99503	200.48973	295.48550	-204.26654	295.93304	258.40375	-433.97781	108.49026	245.63007	-126.91380	35.88680	241.76117	-229.44716	35.76377	193.49846	-230.32564	27.09761	315.07465	-280.38940	37.39968	306.11026	-251.80449	99.49989	249.43546	-183.44701	31.74585	196.23257	-178.32947	27.00582	299.47916	157.23326	60.38706	107.96088	458.98578	94.93747	62.99840	371.49612	52.13892	124.55436	360.36514	50.20557	10.18307	310.26089	40.91746	24.88925	336.72095	112.88237	78.58465	411.85065	60.92707	116.54720	401.84866	68.06640	13.25910	-156.60036	1018.48492	169.29311 
